<svg width="15" height="16" viewBox="0 0 15 16" fill="none" xmlns="http://www.w3.org/2000/svg">
<path d="M14.5463 14.0332L14.3925 14.1076C13.47 14.5495 12.4125 14.6669 11.4188 14.4322C10.8825 14.307 10.3837 14.088 9.93 13.7868C10.83 14.0332 11.8125 13.9159 12.6412 13.4583C12.6788 13.4387 12.72 13.4153 12.7575 13.3918L12.9188 13.2979L12.4688 12.4726L12.3075 12.5704C12.2775 12.59 12.2475 12.6056 12.2175 12.6213C11.3213 13.1141 10.2638 13.0789 9.39 12.5313C8.61375 12.0463 8.11125 11.2445 7.9875 10.3331C9.05625 10.2314 11.6775 9.75424 13.7812 7.55997C13.8375 7.5013 13.8937 7.44263 13.9462 7.38396C14.5275 6.7425 14.805 5.97979 14.745 5.17405C14.6925 4.4661 14.3813 3.78162 13.8713 3.24967C13.3613 2.71773 12.7013 2.38918 12.0262 2.33833C11.4225 2.28748 10.83 2.45958 10.3088 2.83116C10.1925 2.18188 9.8925 1.63038 9.43125 1.21577C8.91375 0.754237 8.23125 0.5 7.5075 0.5C6.78375 0.5 6.0975 0.754237 5.58375 1.21577C5.1225 1.63038 4.8225 2.18188 4.70625 2.83116C4.185 2.45958 3.59625 2.28748 2.98875 2.33833C2.31 2.39309 1.65375 2.71773 1.14375 3.24967C0.63 3.78553 0.31875 4.47001 0.27 5.17405C0.21 5.97979 0.4875 6.7425 1.06875 7.38396C1.12125 7.44263 1.1775 7.5013 1.23375 7.55997C3.3375 9.75424 5.955 10.2314 7.0275 10.3331C6.90375 11.2445 6.3975 12.0463 5.625 12.5313C4.7475 13.0828 3.69 13.1141 2.7975 12.6213C2.7675 12.6056 2.7375 12.586 2.7075 12.5704L2.54625 12.4726L2.09625 13.2979L2.2575 13.3918C2.295 13.4153 2.33625 13.4387 2.37375 13.4583C3.20625 13.9159 4.18875 14.0332 5.085 13.7868C4.635 14.088 4.1325 14.307 3.59625 14.4322C2.6025 14.6669 1.545 14.5495 0.6225 14.1076L0.46875 14.0332L0 14.8546L0.18375 14.9446C1.28625 15.4844 2.58375 15.633 3.78375 15.3553C5.02875 15.0619 6.10875 14.3579 6.9075 13.3175C6.95625 13.2549 7.00125 13.1884 7.05 13.1258V15.5H7.9575V13.118C8.00625 13.1845 8.05125 13.2549 8.10375 13.3175C8.9025 14.3579 9.9825 15.0619 11.2275 15.3553C11.6287 15.4492 12.0412 15.4961 12.4537 15.4961C13.275 15.4961 14.0925 15.3044 14.8275 14.9446L15 14.8546L14.5463 14.0332ZM5.55 3.77379C5.55 3.71903 5.54625 3.66428 5.54625 3.60561C5.54625 3.53129 5.54625 3.45698 5.55 3.38657C5.58375 2.04889 6.585 1.43872 7.5 1.43872C8.415 1.43872 9.41625 2.04889 9.45 3.38657C9.45375 3.46089 9.45375 3.5352 9.45375 3.60561C9.45375 3.66428 9.45375 3.71904 9.45 3.77771L9.41625 5.0528L10.2675 4.11408C10.3013 4.07497 10.335 4.03977 10.3725 4.00065C10.4213 3.9498 10.4738 3.89896 10.5225 3.84811C11.4525 2.92894 12.5737 3.23403 13.2225 3.91069C13.8712 4.58735 14.1637 5.75293 13.2825 6.72686C13.2337 6.78162 13.185 6.83246 13.1362 6.88331C10.7625 9.36701 7.53 9.41004 7.5 9.41004C7.46625 9.41004 4.24125 9.36701 1.86375 6.88722C1.815 6.83637 1.76625 6.78162 1.7175 6.73077C0.83625 5.75684 1.12875 4.59126 1.7775 3.9146C2.1675 3.50782 2.68125 3.27314 3.18375 3.27314C3.6525 3.27314 4.0875 3.46871 4.4775 3.85202C4.53 3.90287 4.57875 3.95372 4.6275 4.00456C4.665 4.04759 4.7025 4.0867 4.74375 4.12973L5.5875 5.05671L5.55 3.77379Z" fill="#ccc"/>
</svg>
